:SAMPLES-PER-SECOND 30
:FULLY-SPECIFIED
:DEGREES
306
root  74.1355 38.9829 -8.75949 -162.124 -85.5825 160.733
RightUpLeg  -5.11089 -7.61478 -2.21432
RightLeg  11.7195 13.1614 2.83855
RightFoot  -10.2184 -0.126923 5.82551
RightToes  -1.33073e-015 0 -3.6325e-017
Spine  3.62321 0.808096 10.3904
Spine1  5.55998 2.28548 -4.90015
HEad  -7.3212 -26.8996 -4.61846
LeftShoulder1  -0.621867 5.0964 -32.8946
LeftArm  4.77453 10.7465 -42.735
LeftForeArm  23.2381 -28.6903 -4.93868
LeftHand  -0.0305518 5.09787 1.77534
RightShoulder  -0.99352 -6.168 30.7216
RightArm  20.6093 -2.63875 42.2388
RightForeArm  14.5823 10.0841 8.43306
RightHand  -0.20699 4.10038 -2.78892
LeftUpLeg  -3.39039 -0.525505 -3.80524
LeftLeg  21.3477 -4.5344 -1.62185
LeftFoot  -9.5192 0.0241715 2.07502
LeftToes  -1.63346e-009 7.54925e-011 9.86887e-012
307
root  73.9701 38.9641 -8.77237 -159.639 -85.1774 158.828
RightUpLeg  -5.45607 -8.12794 -2.63848
RightLeg  11.7626 13.9731 3.211
RightFoot  -11.192 -0.0838344 6.68644
RightToes  -1.33073e-015 0 -3.6325e-017
Spine  3.40289 0.892161 11.1814
Spine1  5.37533 2.52331 -5.66406
HEad  -7.63736 -26.5384 -4.68775
LeftShoulder1  -0.588863 5.0146 -32.8287
LeftArm  4.67124 10.9522 -42.5666
LeftForeArm  22.4344 -28.2279 -4.87766
LeftHand  -0.0106556 6.8304 1.92677
RightShoulder  -0.967729 -6.09549 30.7627
RightArm  19.7237 -3.4541 41.7166
RightForeArm  15.4414 10.0315 8.17646
RightHand  -0.134714 3.32635 -2.06321
LeftUpLeg  -4.74215 -0.160389 -4.3784
LeftLeg  22.8245 -2.01011 -0.599971
LeftFoot  -9.0946 0.0467714 0.399141
LeftToes  -1.63346e-009 7.54925e-011 9.86887e-012
308
root  73.8281 38.921 -8.78966 -155.921 -85.7371 155.812
RightUpLeg  -5.8609 -8.62353 -2.88003
RightLeg  11.9051 13.9652 3.56476
RightFoot  -12.4507 -0.00831385 7.95967
RightToes  -1.33073e-015 0 -3.6325e-017
Spine  3.44142 0.592023 12.1897
Spine1  4.61087 2.37478 -6.511
HEad  -7.58718 -26.3527 -4.50211
LeftShoulder1  -0.617284 5.09729 -32.5837
LeftArm  4.63371 11.3255 -42.5183
LeftForeArm  21.6351 -27.3593 -4.72551
LeftHand  -0.00195099 7.34051 2.10865
RightShoulder  -0.951154 -6.03121 31.0423
RightArm  19.1902 -4.13941 41.1461
RightForeArm  15.1698 9.66374 8.14784
RightHand  -0.14056 4.42312 -1.97395
LeftUpLeg  -6.69662 -0.620718 -4.51239
LeftLeg  25.1068 -0.750692 -0.0517483
LeftFoot  -8.53936 0.0598301 -0.378155
LeftToes  -1.63346e-009 7.54925e-011 9.86887e-012
309
root  73.658 38.8562 -8.79926 -153.043 -86.3518 153.38
RightUpLeg  -6.06297 -8.83169 -2.90401
RightLeg  12.2911 13.7109 3.68579
RightFoot  -13.9723 0.103516 8.65144
RightToes  -1.33073e-015 0 -3.6325e-017
Spine  3.48779 0.756882 12.407
Spine1  3.99478 2.38949 -5.84948
HEad  -7.15031 -26.9029 -4.37627
LeftShoulder1  -0.610129 5.06919 -32.829
LeftArm  5.1485 11.545 -42.5908
LeftForeArm  21.5565 -26.3701 -4.51042
LeftHand  -0.0225994 7.06458 0.997776
RightShoulder  -0.976603 -6.10515 30.9639
RightArm  18.8501 -4.47121 40.593
RightForeArm  15.3864 8.64072 8.37009
RightHand  -0.1796 2.99202 -2.70391
LeftUpLeg  -8.61375 -1.48689 -4.40547
LeftLeg  27.6145 -0.0875094 0.282638
LeftFoot  -8.82249 0.0879638 -1.57978
LeftToes  -1.63346e-009 7.54925e-011 9.86887e-012
310
root  73.4222 38.8264 -8.8143 -150.84 -86.423 151.106
RightUpLeg  -5.35635 -9.05481 -3.255
RightLeg  12.1577 14.1356 3.7648
RightFoot  -15.849 0.292753 10.0639
RightToes  -1.33073e-015 0 -3.6325e-017
Spine  3.37579 1.24487 11.9304
Spine1  4.55904 2.70853 -4.86376
HEad  -7.01614 -27.275 -4.19454
LeftShoulder1  -0.553667 4.91452 -33.0933
LeftArm  5.51236 11.5913 -42.8347
LeftForeArm  21.5172 -25.3233 -4.28522
LeftHand  -0.0308599 6.46636 0.506894
RightShoulder  -1.00521 -6.19036 30.8457
RightArm  17.7099 -4.06135 40.4323
RightForeArm  16.9405 7.22353 8.34497
RightHand  -0.13866 3.63191 -2.0376
LeftUpLeg  -9.89286 -2.16722 -4.34914
LeftLeg  29.7378 0.0650199 0.383534
LeftFoot  -9.27311 0.0807248 -1.3816
LeftToes  -1.63346e-009 7.54925e-011 9.86887e-012
311
root  73.1564 38.7676 -8.80543 -147.054 -86.3256 147.383
RightUpLeg  -4.68072 -9.40638 -3.85605
RightLeg  11.9025 14.8211 3.90008
RightFoot  -18.3868 0.640185 12.3915
RightToes  -1.33073e-015 0 -3.6325e-017
Spine  3.09054 1.53483 12.3772
Spine1  5.21012 3.1677 -5.58362
HEad  -7.12892 -27.6451 -3.46085
LeftShoulder1  -0.540007 4.88241 -33.0202
LeftArm  6.41073 11.8876 -42.7995
LeftForeArm  20.6805 -24.3169 -4.11018
LeftHand  -0.0237617 6.19665 1.0067
RightShoulder  -1.06071 -6.32198 31.0849
RightArm  16.85 -3.09073 40.7818
RightForeArm  17.7656 5.60169 8.29616
RightHand  -0.151648 3.91393 -2.1693
LeftUpLeg  -11.6979 -3.18356 -4.41385
LeftLeg  31.8391 0.00221736 0.342423
LeftFoot  -9.60183 0.0711335 -0.934691
LeftToes  -1.63346e-009 7.54925e-011 9.86887e-012
312
root  72.9476 38.7141 -8.78814 -139.336 -86.8536 139.98
RightUpLeg  -4.24426 -9.8971 -4.35962
RightLeg  11.6246 15.2778 4.25262
RightFoot  -20.4043 1.00655 14.4032
RightToes  -1.33073e-015 0 -3.6325e-017
Spine  3.26963 1.51256 12.8426
Spine1  4.97679 3.24856 -6.16881
HEad  -7.32336 -27.9048 -2.97216
LeftShoulder1  -0.545451 4.90414 -32.8075
LeftArm  6.39177 12.6183 -42.8574
LeftForeArm  20.4564 -23.8633 -4.0508
LeftHand  -0.0285889 8.0059 0.548386
RightShoulder  -1.07162 -6.36364 30.9229
RightArm  16.2047 -2.44462 41.5559
RightForeArm  17.5646 4.61841 8.14289
RightHand  -0.185232 2.97422 -2.78451
LeftUpLeg  -14.0264 -3.87607 -3.98359
LeftLeg  33.1587 -0.990876 -0.344832
LeftFoot  -8.85798 0.0314565 0.953816
LeftToes  -1.63346e-009 7.54925e-011 9.86887e-012
313
root  72.7375 38.6633 -8.76963 -126.385 -87.2112 127.287
RightUpLeg  -3.95677 -10.276 -4.90301
RightLeg  11.6873 15.3894 4.44763
RightFoot  -22.1816 1.35184 15.7476
RightToes  -1.33073e-015 0 -3.6325e-017
Spine  3.95771 1.39071 12.8126
Spine1  4.33392 3.1915 -6.56982
HEad  -7.40715 -28.5026 -2.44721
LeftShoulder1  -0.565768 4.9654 -32.5618
LeftArm  6.02595 13.2294 -42.7902
LeftForeArm  20.6725 -22.5756 -3.9647
LeftHand  -0.0537431 6.74784 -1.25427
RightShoulder  -1.09106 -6.41108 30.9825
RightArm  15.9088 -1.49035 42.2761
RightForeArm  17.943 4.32181 8.0867
RightHand  -0.144281 2.38124 -2.35735
LeftUpLeg  -16.2478 -4.35954 -3.58332
LeftLeg  33.2189 -1.50757 -0.709989
LeftFoot  -8.37795 0.00635583 1.48835
LeftToes  -1.63346e-009 7.54925e-011 9.86887e-012
314
root  72.4579 38.6594 -8.75252 -120.705 -86.976 121.548
RightUpLeg  -2.96101 -10.5572 -5.58496
RightLeg  10.9728 15.9585 4.4029
RightFoot  -23.3872 1.64234 16.9779
RightToes  -1.33073e-015 0 -3.6325e-017
Spine  4.91959 1.48207 12.6097
Spine1  3.41428 3.40277 -7.20738
HEad  -6.82885 -28.9918 -1.98566
LeftShoulder1  -0.512741 4.81953 -32.8237
LeftArm  5.41593 14.2484 -41.9087
LeftForeArm  21.0328 -21.437 -4.16833
LeftHand  -0.05082 6.29945 -1.69759
RightShoulder  -1.11062 -6.42969 31.4112
RightArm  16.1487 -0.777486 42.4332
RightForeArm  17.1185 5.04893 8.20233
RightHand  -0.171788 2.26358 -2.78636
LeftUpLeg  -17.7701 -3.62295 -3.17424
LeftLeg  31.5461 -1.91695 -0.926687
LeftFoot  -9.42963 0.0840806 -1.48758
LeftToes  -1.63346e-009 7.54925e-011 9.86887e-012
315
root  72.0818 38.717 -8.7247 -120.224 -86.46 120.867
RightUpLeg  -1.70267 -10.6576 -6.25379
RightLeg  10.0991 16.6244 4.09236
RightFoot  -23.711 1.70535 17.1184
RightToes  -1.33073e-015 0 -3.6325e-017
Spine  4.56014 1.83066 11.9501
Spine1  4.53382 3.78515 -7.36215
HEad  -6.59846 -28.8791 -1.66031
LeftShoulder1  -0.496739 4.77138 -33.0414
LeftArm  4.23192 14.7206 -41.6767
LeftForeArm  22.518 -19.8219 -4.64649
LeftHand  -0.0425256 6.73282 -0.649121
RightShoulder  -1.08355 -6.38767 31.0283
RightArm  16.6958 0.316171 43.3455
RightForeArm  15.7961 6.20663 8.40208
RightHand  -0.209067 3.14553 -3.11411
LeftUpLeg  -18.5938 -2.28796 -2.9203
LeftLeg  28.7616 -1.82435 -0.744155
LeftFoot  -8.95566 0.0847235 -1.48826
LeftToes  -1.63346e-009 7.54925e-011 9.86887e-012
316
root  71.7279 38.6927 -8.68491 -107.208 -86.9832 108.291
RightUpLeg  -1.5551 -10.4549 -6.03134
RightLeg  10.212 15.5596 3.81235
RightFoot  -24.0008 1.66245 16.3621
RightToes  -1.33073e-015 0 -3.6325e-017
Spine  4.54831 1.70057 11.6852
Spine1  4.1368 3.52112 -7.16595
HEad  -5.84207 -28.657 -1.5078
LeftShoulder1  -0.476357 4.71928 -33.0255
LeftArm  2.11334 15.1875 -41.3827
LeftForeArm  23.7822 -17.5524 -5.50674
LeftHand  -0.0554657 8.37778 -0.293974
RightShoulder  -1.11737 -6.48255 30.9674
RightArm  17.9031 0.80927 43.8445
RightForeArm  13.7427 8.88403 8.27223
RightHand  -0.217319 4.90626 -2.73506
LeftUpLeg  -20.8308 -2.67562 -1.97824
LeftLeg  26.6991 -2.04218 -0.778018
LeftFoot  -8.78889 0.0842611 -1.42067
LeftToes  -1.63346e-009 7.54925e-011 9.86887e-012
317
root  71.2706 38.7083 -8.61783 -102.726 -86.8372 103.644
RightUpLeg  -0.695824 -10.3214 -6.27759
RightLeg  10.3239 15.263 3.43152
RightFoot  -24.0379 1.55775 15.3924
RightToes  -1.33073e-015 0 -3.6325e-017
Spine  5.21459 1.64334 11.3773
Spine1  3.48983 3.56001 -7.72328
HEad  -5.00797 -28.0514 -1.14401
LeftShoulder1  -0.373077 4.46329 -32.7489
LeftArm  -0.469197 16.1304 -41.0622
LeftForeArm  26.6856 -15.4046 -6.20181
LeftHand  -0.0772514 9.15409 -0.867691
RightShoulder  -1.18873 -6.61996 31.6216
RightArm  20.9135 1.28334 43.7651
RightForeArm  10.127 12.0543 7.8463
RightHand  -0.237459 4.80916 -2.98977
LeftUpLeg  -21.8028 -2.66887 -1.44289
LeftLeg  23.6651 -2.43595 -0.844371
LeftFoot  -8.4115 0.0772139 -1.04353
LeftToes  -1.63346e-009 7.54925e-011 9.86887e-012
318
root  70.7563 38.7017 -8.51968 -106.481 -86.4543 107.07
RightUpLeg  0.258941 -10.4068 -6.79596
RightLeg  10.6853 15.7389 3.29563
RightFoot  -24.009 1.40374 14.0612
RightToes  -1.33073e-015 0 -3.6325e-017
Spine  5.48552 1.8299 10.8223
Spine1  3.99341 3.80341 -7.80991
HEad  -4.1625 -27.7091 -0.838892
LeftShoulder1  -0.4652 4.6872 -33.1563
LeftArm  -2.23112 16.1975 -40.5722
LeftForeArm  27.758 -13.5298 -6.79826
LeftHand  -0.0984497 12.3662 -0.503543
RightShoulder  -1.16427 -6.58664 31.2208
RightArm  23.4391 1.8415 44.7534
RightForeArm  6.49721 15.2478 6.82441
RightHand  -0.185664 4.48376 -2.45874
LeftUpLeg  -22.3044 -2.46665 -1.0206
LeftLeg  20.3866 -2.60833 -0.741099
LeftFoot  -8.14206 0.0760664 -0.974586
LeftToes  -1.63346e-009 7.54925e-011 9.86887e-012
